<svg width="50.000000" height="32.000000" viewBox="0 0 50 32" fill="none" xmlns="http://www.w3.org/2000/svg" xmlns:xlink="http://www.w3.org/1999/xlink">
	<desc>
			Created with Pixso.
	</desc>
	<defs>
		<clipPath id="clip52_2">
			<rect id="download" width="25.000000" height="25.000000" transform="translate(12.000000 3.000000)" fill="white" fill-opacity="0"/>
		</clipPath>
	</defs>
	<rect id="Rectangle 22" rx="8.000000" width="50.000000" height="32.000000" fill="#FFFFFF" fill-opacity="1.000000"/>
	<rect id="Rectangle 22" x="0.500000" y="0.500000" rx="8.000000" width="49.000000" height="31.000000" stroke="#F2F2F2" stroke-opacity="1.000000" stroke-width="1.000000"/>
	<g clip-path="url(#clip52_2)">
		<path id="path" d="M19.43 6.13C19.56 6.12 19.72 6.12 19.85 6.12L26.69 6.12C26.78 6.12 26.89 6.12 26.99 6.13C27.11 6.14 27.27 6.16 27.44 6.23C27.84 6.41 28.1 6.71 28.22 7.14C28.25 7.24 28.27 7.35 28.29 7.43L29.44 12.74L27.55 12.74L26.52 8.01L20.11 8.01L21.7 15.37C21.81 15.88 21.5 16.39 21 16.5C20.75 16.56 20.52 16.51 20.3 16.37C20.08 16.23 19.95 16.03 19.9 15.78L18.25 8.17C18.22 8.03 18.19 7.88 18.17 7.74C18.14 7.52 18.15 7.31 18.22 7.09C18.32 6.77 18.54 6.49 18.82 6.32C19.05 6.18 19.28 6.15 19.43 6.13Z" fill="#CCCCCC" fill-opacity="1.000000" fill-rule="nonzero"/>
		<path id="path" d="M22.6 15.17L22.28 13.69L34.65 13.69L34.65 16.28L33.27 16.28L32.16 22.55C32 23.44 31.24 24.09 30.35 24.09L18.64 24.09C17.75 24.09 16.99 23.44 16.83 22.55L15.72 16.28L14.34 16.28L14.34 13.69L18.5 13.69L19 15.99C19.22 17.01 20.21 17.65 21.2 17.42C22.2 17.2 22.83 16.19 22.6 15.17Z" fill="#CCCCCC" fill-opacity="1.000000" fill-rule="nonzero"/>
	</g>
</svg>
