<svg width="32.000000" height="32.000000" viewBox="0 0 32 32" fill="none" xmlns="http://www.w3.org/2000/svg" xmlns:xlink="http://www.w3.org/1999/xlink">
	<desc>
			Created with Pixso.
	</desc>
	<defs/>
	<rect rx="7.000000" width="32.000000" height="32.000000" fill="#FEF0F0" fill-opacity="1.000000"/>
	<path d="M22.58 12.22C22.36 11.7 22.03 11.24 21.63 10.85C21.23 10.46 20.75 10.14 20.23 9.93C19.69 9.71 19.11 9.59 18.52 9.59C17.7 9.59 16.9 9.82 16.2 10.24C16.04 10.34 15.88 10.45 15.73 10.57C15.58 10.45 15.42 10.34 15.25 10.24C14.56 9.82 13.76 9.59 12.93 9.59C12.34 9.59 11.77 9.71 11.23 9.93C10.7 10.15 10.23 10.46 9.83 10.85C9.42 11.24 9.1 11.7 8.88 12.22C8.65 12.75 8.53 13.32 8.53 13.9C8.53 14.45 8.64 15.03 8.87 15.61C9.06 16.1 9.33 16.61 9.67 17.12C10.22 17.93 10.97 18.77 11.9 19.62C13.45 21.04 14.98 22.02 15.05 22.06L15.44 22.31C15.62 22.42 15.84 22.42 16.02 22.31L16.41 22.06C16.48 22.02 18.01 21.04 19.55 19.62C20.49 18.77 21.24 17.93 21.79 17.12C22.13 16.61 22.4 16.1 22.59 15.61C22.82 15.03 22.93 14.45 22.93 13.9C22.93 13.32 22.81 12.75 22.58 12.22Z" fill="#EF7C37" fill-opacity="1.000000" fill-rule="nonzero"/>
	<path d="M15.73 10.57C15.58 10.45 15.42 10.34 15.25 10.24C14.56 9.82 13.76 9.59 12.93 9.59C12.34 9.59 11.77 9.71 11.23 9.93C10.7 10.15 10.23 10.46 9.83 10.85C9.42 11.24 9.1 11.7 8.88 12.22C8.65 12.75 8.53 13.32 8.53 13.9C8.53 14.45 8.64 15.03 8.87 15.61C9.06 16.1 9.33 16.61 9.67 17.12C10.22 17.93 10.97 18.77 11.9 19.62C13.45 21.04 14.98 22.02 15.05 22.06L15.44 22.31C15.62 22.42 15.84 22.42 16.02 22.31L16.41 22.06C16.48 22.02 18.01 21.04 19.55 19.62C20.49 18.77 21.24 17.93 21.79 17.12C22.13 16.61 22.4 16.1 22.59 15.61C22.82 15.03 22.93 14.45 22.93 13.9C22.93 13.32 22.81 12.75 22.58 12.22C22.36 11.7 22.03 11.24 21.63 10.85C21.23 10.46 20.75 10.14 20.23 9.93C19.69 9.71 19.11 9.59 18.52 9.59C17.7 9.59 16.9 9.82 16.2 10.24C16.04 10.34 15.88 10.45 15.73 10.57ZM20.99 10.35C21.22 10.5 21.43 10.67 21.62 10.86L21.62 10.86C21.83 11.06 22.02 11.29 22.18 11.52C22.33 11.74 22.46 11.98 22.57 12.22C22.69 12.51 22.78 12.81 22.84 13.11C22.89 13.37 22.91 13.63 22.91 13.9C22.91 14.46 22.8 15.02 22.58 15.61C22.39 16.09 22.12 16.59 21.77 17.11C21.23 17.92 20.48 18.75 19.54 19.61C18.9 20.21 18.19 20.78 17.42 21.35C17.02 21.64 16.68 21.87 16.4 22.05L16.01 22.3C15.97 22.32 15.92 22.34 15.88 22.36C15.83 22.37 15.78 22.38 15.73 22.38C15.68 22.38 15.63 22.37 15.58 22.36C15.53 22.34 15.49 22.32 15.45 22.3L15.05 22.05C15 22.01 14.9 21.95 14.75 21.85C14.52 21.69 14.29 21.53 14.04 21.35C13.27 20.78 12.56 20.21 11.91 19.61C10.97 18.75 10.23 17.92 9.68 17.11C9.34 16.6 9.07 16.1 8.88 15.61C8.66 15.02 8.54 14.46 8.54 13.9C8.54 13.62 8.57 13.34 8.63 13.06C8.69 12.78 8.77 12.5 8.89 12.22C9 11.98 9.13 11.74 9.28 11.52C9.44 11.28 9.63 11.06 9.84 10.86C10.04 10.67 10.25 10.5 10.48 10.35C10.71 10.19 10.96 10.06 11.23 9.95C11.46 9.85 11.69 9.78 11.92 9.72C12.25 9.65 12.59 9.61 12.93 9.61C13.16 9.61 13.39 9.63 13.61 9.66C13.79 9.69 13.96 9.73 14.14 9.77C14.35 9.83 14.55 9.91 14.75 10C14.92 10.07 15.09 10.16 15.25 10.25C15.41 10.35 15.57 10.46 15.72 10.58L15.73 10.59L15.74 10.58C15.89 10.46 16.05 10.35 16.21 10.25C16.37 10.16 16.54 10.07 16.71 9.99C16.91 9.91 17.11 9.83 17.32 9.77C17.49 9.73 17.67 9.69 17.84 9.66C18.07 9.63 18.3 9.61 18.52 9.61C18.82 9.61 19.12 9.64 19.4 9.7C19.68 9.75 19.96 9.83 20.23 9.95C20.5 10.06 20.75 10.19 20.99 10.35Z" fill="#000000" fill-opacity="1.000000" fill-rule="evenodd"/>
</svg>
