<svg width="50.000000" height="32.000000" viewBox="0 0 50 32" fill="none" xmlns="http://www.w3.org/2000/svg" xmlns:xlink="http://www.w3.org/1999/xlink">
	<desc>
			Created with Pixso.
	</desc>
	<defs/>
	<rect id="Rectangle 21" rx="7.000000" width="50.000000" height="32.000000" fill="#FFFFFF" fill-opacity="1.000000"/>
	<rect id="Rectangle 21" x="0.500000" y="0.500000" rx="7.000000" width="49.000000" height="31.000000" stroke="#F2F2F2" stroke-opacity="1.000000" stroke-width="1.000000"/>
	<path id="Vector" d="M24.6 10.91C24.46 10.8 24.31 10.69 24.16 10.6C23.52 10.2 22.79 10 22.03 10C21.49 10 20.97 10.1 20.47 10.31C19.99 10.51 19.56 10.8 19.19 11.17C18.82 11.54 18.52 11.97 18.32 12.45C18.1 12.96 18 13.49 18 14.03C18 14.55 18.1 15.09 18.31 15.64C18.48 16.09 18.73 16.57 19.04 17.05C19.54 17.81 20.23 18.6 21.09 19.4C22.51 20.73 23.91 21.64 23.97 21.68L24.33 21.92C24.49 22.02 24.7 22.02 24.86 21.92L25.22 21.68C25.28 21.64 26.68 20.73 28.1 19.4C28.96 18.6 29.65 17.81 30.15 17.05C30.46 16.57 30.71 16.09 30.88 15.64C31.09 15.09 31.2 14.55 31.2 14.03C31.2 13.49 31.09 12.96 30.88 12.45C30.67 11.97 30.38 11.54 30.01 11.17C29.64 10.8 29.2 10.51 28.72 10.31C28.23 10.1 27.7 9.99 27.16 10C26.4 10 25.67 10.2 25.03 10.6C24.88 10.69 24.73 10.8 24.6 10.91ZM28.8 11.48Q29.07 11.65 29.3 11.88L29.3 11.88Q29.5 12.08 29.65 12.3Q29.83 12.55 29.96 12.84Q30.07 13.13 30.13 13.42Q30.2 13.72 30.2 14.03Q30.2 14.63 29.95 15.29Q29.73 15.86 29.31 16.5Q28.63 17.54 27.42 18.67Q26.57 19.46 25.55 20.22Q25.03 20.61 24.68 20.84L24.59 20.9L24.5 20.83Q24.44 20.8 24.26 20.67Q23.96 20.46 23.64 20.22Q22.62 19.46 21.77 18.67Q20.56 17.54 19.88 16.5Q19.46 15.87 19.24 15.28Q19 14.63 19 14.03Q19 13.71 19.06 13.41Q19.12 13.12 19.24 12.84Q19.36 12.56 19.53 12.31Q19.69 12.08 19.89 11.88Q20.12 11.65 20.38 11.48Q20.61 11.34 20.86 11.23Q21.09 11.13 21.34 11.07Q21.68 11 22.03 11Q22.47 11 22.87 11.11Q23.27 11.22 23.63 11.45Q23.81 11.56 23.96 11.68L24.6 12.21L25.23 11.68Q25.39 11.56 25.56 11.45Q25.91 11.23 26.3 11.12Q26.71 11 27.16 11Q27.45 10.99 27.72 11.05Q28.03 11.1 28.34 11.23Q28.58 11.34 28.8 11.48Z" fill="#CCCCCC" fill-opacity="1.000000" fill-rule="evenodd"/>
</svg>
