<svg width="30.000000" height="30.000000" viewBox="0 0 30 30" fill="none" xmlns="http://www.w3.org/2000/svg" xmlns:xlink="http://www.w3.org/1999/xlink">
	<desc>
			Created with Pixso.
	</desc>
	<defs/>
	<rect id="Rectangle 21" rx="7.000000" width="30.000000" height="30.000000" fill="#FFFFFF" fill-opacity="1.000000"/>
	<rect id="Rectangle 21" x="0.500000" y="0.500000" rx="7.000000" width="29.000000" height="29.000000" stroke="#F8F8F8" stroke-opacity="1.000000" stroke-width="1.000000"/>
	<path id="Vector" d="M14.75 9.91Q14.53 9.74 14.3 9.6C13.65 9.2 12.9 9 12.13 9C11.57 9 11.03 9.1 10.53 9.31C10.03 9.51 9.59 9.8 9.21 10.17C8.83 10.54 8.53 10.97 8.32 11.45C8.11 11.96 8 12.49 8 13.03C8 13.55 8.1 14.09 8.31 14.64C8.49 15.09 8.74 15.57 9.07 16.05C9.58 16.81 10.28 17.6 11.16 18.4C12.61 19.73 14.04 20.64 14.11 20.68L14.48 20.92C14.64 21.02 14.85 21.02 15.01 20.92L15.38 20.68C15.45 20.64 16.88 19.73 18.33 18.4C19.21 17.6 19.91 16.81 20.42 16.05C20.75 15.57 21 15.09 21.18 14.64C21.39 14.09 21.5 13.55 21.5 13.03C21.5 12.49 21.39 11.96 21.17 11.45C20.96 10.97 20.66 10.54 20.28 10.17C19.9 9.8 19.46 9.51 18.97 9.31C18.46 9.1 17.92 8.99 17.37 9C16.6 9 15.84 9.2 15.19 9.6C15.03 9.69 14.89 9.8 14.75 9.91ZM19.14 10.53Q19.38 10.69 19.58 10.89L19.58 10.89Q19.81 11.11 19.99 11.38Q20.14 11.6 20.25 11.85Q20.38 12.15 20.44 12.46Q20.5 12.74 20.5 13.03Q20.5 13.63 20.24 14.28Q20.02 14.85 19.6 15.49Q18.89 16.53 17.66 17.66Q16.79 18.46 15.75 19.22Q15.22 19.6 14.85 19.84L14.74 19.9L14.63 19.83Q14.57 19.79 14.38 19.67Q14.07 19.46 13.74 19.22Q12.7 18.46 11.83 17.66Q10.6 16.53 9.89 15.49Q9.47 14.86 9.25 14.28Q9 13.63 9 13.03Q9 12.73 9.05 12.45Q9.11 12.14 9.24 11.85Q9.35 11.6 9.5 11.38Q9.67 11.12 9.91 10.89Q10.11 10.69 10.35 10.53Q10.61 10.36 10.91 10.23Q11.13 10.14 11.37 10.08Q11.74 10 12.13 10Q12.6 10 13.04 10.13Q13.43 10.24 13.78 10.46Q13.96 10.56 14.12 10.69L14.75 11.2L15.37 10.69Q15.53 10.56 15.71 10.46Q16.06 10.24 16.44 10.13Q16.88 10 17.37 10Q17.68 9.99 17.98 10.05Q18.29 10.11 18.59 10.23Q18.88 10.36 19.14 10.53Z" fill="#CCCCCC" fill-opacity="1.000000" fill-rule="evenodd"/>
</svg>
