<svg width="50.000000" height="32.000000" viewBox="0 0 50 32" fill="none" xmlns="http://www.w3.org/2000/svg" xmlns:xlink="http://www.w3.org/1999/xlink">
	<desc>
			Created with Pixso.
	</desc>
	<defs/>
	<rect rx="7.000000" width="50.000000" height="32.000000" fill="#FEF0F0" fill-opacity="1.000000"/>
	<path d="M32.05 12.62C31.82 12.1 31.5 11.64 31.1 11.25C30.7 10.86 30.22 10.54 29.7 10.33C29.16 10.11 28.58 9.99 27.99 10C27.17 10 26.37 10.22 25.67 10.64C25.5 10.74 25.35 10.85 25.2 10.97C25.05 10.85 24.89 10.74 24.72 10.64C24.02 10.22 23.22 10 22.4 10C21.81 10 21.24 10.11 20.69 10.33C20.17 10.55 19.7 10.86 19.29 11.25C18.89 11.64 18.57 12.1 18.35 12.62C18.11 13.15 18 13.72 18 14.3C18 14.85 18.11 15.43 18.33 16.01C18.52 16.5 18.79 17.01 19.14 17.52C19.68 18.33 20.44 19.17 21.37 20.02C22.92 21.44 24.45 22.42 24.51 22.46L24.91 22.71C25.08 22.82 25.31 22.82 25.48 22.71L25.88 22.46C25.94 22.42 27.47 21.44 29.02 20.02C29.95 19.17 30.71 18.33 31.25 17.52C31.6 17.01 31.87 16.5 32.06 16.01C32.28 15.43 32.4 14.85 32.4 14.3C32.4 13.72 32.28 13.15 32.05 12.62Z" fill="#EF7C37" fill-opacity="1.000000" fill-rule="nonzero"/>
	<path d="M25.2 10.97C25.05 10.85 24.89 10.74 24.72 10.64C24.02 10.22 23.22 10 22.4 10C21.81 10 21.24 10.11 20.69 10.33C20.17 10.55 19.7 10.86 19.29 11.25C18.89 11.64 18.57 12.1 18.35 12.62C18.11 13.15 18 13.72 18 14.3C18 14.85 18.11 15.43 18.33 16.01C18.52 16.5 18.79 17.01 19.14 17.52C19.68 18.33 20.44 19.17 21.37 20.02C22.92 21.44 24.45 22.42 24.51 22.46L24.91 22.71C25.08 22.82 25.31 22.82 25.48 22.71L25.88 22.46C25.94 22.42 27.47 21.44 29.02 20.02C29.95 19.17 30.71 18.33 31.25 17.52C31.6 17.01 31.87 16.5 32.06 16.01C32.28 15.43 32.4 14.85 32.4 14.3C32.4 13.72 32.28 13.15 32.05 12.62C31.82 12.1 31.5 11.64 31.1 11.25C30.7 10.86 30.22 10.54 29.7 10.33C29.16 10.11 28.58 9.99 27.99 10C27.17 10 26.37 10.22 25.67 10.64C25.5 10.74 25.35 10.85 25.2 10.97ZM30.46 10.75C30.68 10.9 30.89 11.07 31.09 11.26L31.09 11.26C31.3 11.46 31.48 11.69 31.65 11.92C31.8 12.14 31.92 12.38 32.03 12.62C32.16 12.91 32.25 13.21 32.31 13.51C32.36 13.77 32.38 14.03 32.38 14.3C32.38 14.86 32.27 15.42 32.04 16.01C31.86 16.49 31.59 16.99 31.24 17.51C30.69 18.32 29.95 19.15 29.01 20.01C28.36 20.61 27.65 21.18 26.88 21.75C26.49 22.04 26.15 22.27 25.87 22.45L25.47 22.7C25.43 22.72 25.39 22.74 25.35 22.76C25.3 22.77 25.25 22.78 25.2 22.78C25.14 22.78 25.09 22.77 25.04 22.76C25 22.74 24.96 22.72 24.92 22.7L24.52 22.45C24.47 22.41 24.37 22.35 24.22 22.25C23.99 22.09 23.75 21.93 23.51 21.75C22.74 21.18 22.03 20.61 21.38 20.01C20.44 19.15 19.7 18.32 19.15 17.51C18.8 17 18.54 16.5 18.35 16.01C18.12 15.42 18.01 14.86 18.01 14.3C18.01 14.02 18.04 13.74 18.09 13.46C18.15 13.18 18.24 12.9 18.36 12.62C18.47 12.38 18.6 12.14 18.75 11.92C18.91 11.68 19.09 11.46 19.3 11.26C19.5 11.07 19.72 10.9 19.94 10.75C20.18 10.59 20.43 10.46 20.7 10.35C20.92 10.25 21.15 10.18 21.39 10.12C21.72 10.05 22.05 10.01 22.4 10.01C22.63 10.01 22.86 10.03 23.08 10.06C23.26 10.09 23.43 10.13 23.6 10.17C23.82 10.23 24.02 10.31 24.22 10.4C24.39 10.47 24.55 10.56 24.71 10.65C24.88 10.75 25.04 10.86 25.19 10.98L25.2 10.99L25.21 10.98C25.36 10.86 25.51 10.75 25.68 10.65C25.84 10.56 26 10.47 26.17 10.4C26.37 10.31 26.58 10.23 26.79 10.17C26.96 10.13 27.14 10.09 27.31 10.06C27.54 10.03 27.76 10.01 27.99 10.01C28.29 10.01 28.58 10.04 28.87 10.1C29.15 10.15 29.42 10.23 29.69 10.35C29.96 10.46 30.22 10.59 30.46 10.75Z" fill="#000000" fill-opacity="1.000000" fill-rule="evenodd"/>
</svg>
